<?xml version="1.0" encoding="utf-8"?>
<!-- Generator: Adobe Illustrator 23.0.1, SVG Export Plug-In . SVG Version: 6.00 Build 0)  -->
<svg version="1.1" id="Layer_1" xmlns="http://www.w3.org/2000/svg" xmlns:xlink="http://www.w3.org/1999/xlink" x="0px" y="0px"
	 viewBox="0 0 972.6 576.5" style="enable-background:new 0 0 972.6 576.5;" xml:space="preserve">
<style type="text/css">
	.st0{opacity:0.5;fill:url(#SVGID_1_);}
	.st1{fill:#F1256C;}
	.st2{fill:url(#SVGID_2_);}
	.st3{opacity:0.9;fill:url(#SVGID_3_);enable-background:new    ;}
	.st4{fill:#FFFFFF;}
	.st5{fill:#9000F4;}
	.st6{fill:#3FA9F5;}
	.st7{fill:#800080;}
	.st8{fill:url(#SVGID_4_);}
	.st9{fill:url(#SVGID_5_);}
	.st10{fill:url(#SVGID_6_);}
	.st11{fill:url(#SVGID_7_);}
	.st12{fill:url(#SVGID_8_);}
	.st13{fill:url(#SVGID_9_);}
	.st14{fill:none;}
	.st15{fill:url(#SVGID_10_);}
</style>
<title>Portfolio SVG</title>
<linearGradient id="SVGID_1_" gradientUnits="userSpaceOnUse" x1="182.0088" y1="163.2063" x2="879.7791" y2="431.0551">
	<stop  offset="6.713014e-07" style="stop-color:#94F1FF"/>
	<stop  offset="0.1983" style="stop-color:#90E4FF"/>
	<stop  offset="1" style="stop-color:#7FB2FF"/>
</linearGradient>
<path class="st0" d="M197.8,0.5h619.8c35.2,0,63.8,28.6,63.8,63.8v447.8c0,35.2-28.6,63.8-63.8,63.8H197.8
	c-35.2,0-63.8-28.6-63.8-63.8V64.3C134,29.1,162.5,0.5,197.8,0.5z"/>
<path class="st1" d="M185.1,344.6h98.3c9.2,0,16.6,7.6,16.6,17V512c0,9.4-7.4,17-16.6,17h-98.3c-9.2,0-16.6-7.6-16.6-17V361.6
	C168.5,352.2,175.9,344.6,185.1,344.6z"/>
<linearGradient id="SVGID_2_" gradientUnits="userSpaceOnUse" x1="166.7403" y1="337.5992" x2="298.31" y2="337.5992" gradientTransform="matrix(1 0 0 -1 0 578)">
	<stop  offset="0" style="stop-color:#005B97"/>
	<stop  offset="0.29" style="stop-color:#04639F"/>
	<stop  offset="0.72" style="stop-color:#0D78B4"/>
	<stop  offset="0.99" style="stop-color:#1589C4"/>
</linearGradient>
<path class="st2" d="M183.4,156.5h98.3c9.2,0,16.6,6.9,16.6,15.5v136.8c0,8.6-7.4,15.5-16.6,15.5h-98.3c-9.2,0-16.6-6.9-16.6-15.5
	V172C166.7,163.5,174.2,156.5,183.4,156.5z"/>
<linearGradient id="SVGID_3_" gradientUnits="userSpaceOnUse" x1="312.9105" y1="141.18" x2="843.5029" y2="141.18" gradientTransform="matrix(1 0 0 -1 0 578)">
	<stop  offset="0" style="stop-color:#1589C4"/>
	<stop  offset="0.4" style="stop-color:#107DB9"/>
	<stop  offset="1" style="stop-color:#0464A0"/>
</linearGradient>
<path class="st3" d="M329.5,343.6h497.4c9.2,0,16.6,7.6,16.6,17V513c0,9.4-7.4,17-16.6,17H329.5c-9.2,0-16.6-7.6-16.6-17V360.6
	C312.9,351.3,320.3,343.6,329.5,343.6z"/>
<path class="st1" d="M607.5,155.6h220.4c9.2,0,16.6,6.9,16.6,15.5v138.6c0,8.6-7.4,15.5-16.6,15.5H607.5c-9.2,0-16.6-6.9-16.6-15.5
	V171.1C590.9,162.6,598.3,155.6,607.5,155.6z"/>
<path class="st1" d="M334.4,155.6h220.4c9.2,0,16.6,6.9,16.6,15.5v138.6c0,8.6-7.4,15.5-16.6,15.5H334.4c-9.2,0-16.6-6.9-16.6-15.5
	V171.1C317.8,162.6,325.2,155.6,334.4,155.6z"/>
<ellipse class="st1" cx="173.5" cy="66.5" rx="6.1" ry="6.3"/>
<ellipse class="st4" cx="816.9" cy="180.2" rx="7" ry="7.1"/>
<ellipse class="st5" cx="277.8" cy="365.5" rx="7" ry="7.1"/>
<ellipse class="st6" cx="345.5" cy="179.5" rx="7" ry="7.1"/>
<ellipse class="st4" cx="541.4" cy="180.2" rx="7" ry="7.1"/>
<ellipse class="st4" cx="279.1" cy="180.2" rx="7" ry="7.1"/>
<ellipse class="st7" cx="190.9" cy="66.5" rx="6.1" ry="6.3"/>
<ellipse class="st1" cx="208.3" cy="66.5" rx="6.1" ry="6.3"/>
<path class="st1" d="M252.6,55.4h586.1c6.3,0,11.5,5.3,11.5,11.7v0c0,6.5-5.1,11.7-11.5,11.7H252.6c-6.3,0-11.5-5.3-11.5-11.7v0
	C241.2,60.6,246.3,55.4,252.6,55.4z"/>
<path class="st4" d="M808.1,108.1H832c6.3,0,11.5,5.3,11.5,11.7v0c0,6.5-5.1,11.7-11.5,11.7h-23.9c-6.3,0-11.5-5.3-11.5-11.7v0
	C796.7,113.4,801.8,108.1,808.1,108.1z"/>
<linearGradient id="SVGID_4_" gradientUnits="userSpaceOnUse" x1="168.4288" y1="458.135" x2="472.9295" y2="458.135" gradientTransform="matrix(1 0 0 -1 0 578)">
	<stop  offset="0" style="stop-color:#800080"/>
	<stop  offset="0.25" style="stop-color:#770B93"/>
	<stop  offset="0.74" style="stop-color:#6127C3"/>
	<stop  offset="1" style="stop-color:#5537DE"/>
</linearGradient>
<path class="st8" d="M179.9,108.1h281.6c6.3,0,11.5,5.3,11.5,11.7v0c0,6.5-5.1,11.7-11.5,11.7H179.9c-6.3,0-11.5-5.3-11.5-11.7v0
	C168.4,113.4,173.6,108.1,179.9,108.1z"/>
<linearGradient id="SVGID_5_" gradientUnits="userSpaceOnUse" x1="611.3699" y1="398.743" x2="719.7605" y2="398.743" gradientTransform="matrix(1 0 0 -1 0 578)">
	<stop  offset="0" style="stop-color:#1589C4"/>
	<stop  offset="0.36" style="stop-color:#0A71AD"/>
	<stop  offset="0.72" style="stop-color:#03619D"/>
	<stop  offset="0.99" style="stop-color:#005B97"/>
</linearGradient>
<path class="st9" d="M619.2,171.2h92.7c4.3,0,7.8,3.6,7.8,8v0c0,4.4-3.5,8-7.8,8h-92.7c-4.3,0-7.8-3.6-7.8-8v0
	C611.4,174.8,614.9,171.2,619.2,171.2z"/>
<path class="st1" d="M353.6,444.9V500c0,4.4-3.5,8-7.8,8h0c-4.3,0-7.8-3.6-7.8-8v-55.2c0-4.4,3.5-8,7.8-8h0
	C350.1,436.8,353.6,440.4,353.6,444.9z"/>
<path class="st7" d="M377.8,466v33.9c0,4.4-3.5,8-7.8,8h0c-4.3,0-7.8-3.6-7.8-8V466c0-4.4,3.5-8,7.8-8h0
	C374.3,457.9,377.8,461.5,377.8,466z"/>
<path class="st1" d="M402,434.4V500c0,4.4-3.5,8-7.8,8h0c-4.3,0-7.8-3.6-7.8-8v-65.6c0-4.4,3.5-8,7.8-8h0
	C398.4,426.4,402,429.9,402,434.4z"/>
<path class="st7" d="M426.1,482.5v17.4c0,4.4-3.5,8-7.8,8h0c-4.3,0-7.8-3.6-7.8-8v-17.4c0-4.4,3.5-8,7.8-8h0
	C422.6,474.4,426.1,478,426.1,482.5z"/>
<path class="st1" d="M450.8,441v59c0,4.4-3.5,8-7.8,8h0c-4.3,0-7.8-3.6-7.8-8v-59c0-4.4,3.5-8,7.8-8h0
	C447.3,433,450.8,436.6,450.8,441z"/>
<path class="st7" d="M475.2,486.5v13.4c0,4.4-3.5,8-7.8,8h0c-4.3,0-7.8-3.6-7.8-8v-13.4c0-4.4,3.5-8,7.8-8h0
	C471.7,478.4,475.2,482,475.2,486.5z"/>
<path class="st1" d="M499.5,450.5v49.4c0,4.4-3.5,8-7.8,8h0c-4.3,0-7.8-3.6-7.8-8v-49.4c0-4.4,3.5-8,7.8-8h0
	C496,442.4,499.5,446,499.5,450.5z"/>
<path class="st7" d="M523.6,467v32.9c0,4.4-3.5,8-7.8,8h0c-4.3,0-7.8-3.6-7.8-8V467c0-4.4,3.5-8,7.8-8h0
	C520.1,458.9,523.6,462.5,523.6,467z"/>
<path class="st1" d="M548.3,434.4V500c0,4.4-3.5,8-7.8,8h0c-4.3,0-7.8-3.6-7.8-8v-65.6c0-4.4,3.5-8,7.8-8h0
	C544.8,426.4,548.3,429.9,548.3,434.4z"/>
<path class="st7" d="M572.9,444.9V500c0,4.4-3.5,8-7.8,8h0c-4.3,0-7.8-3.6-7.8-8v-55.1c0-4.4,3.5-8,7.8-8h0
	C569.4,436.8,572.9,440.4,572.9,444.9z"/>
<path class="st1" d="M597.3,411.4V500c0,4.4-3.5,8-7.8,8h0c-4.3,0-7.8-3.6-7.8-8v-88.6c0-4.4,3.5-8,7.8-8h0
	C593.8,403.4,597.3,407,597.3,411.4z"/>
<path class="st7" d="M621.7,441v59c0,4.4-3.5,8-7.8,8h0c-4.3,0-7.8-3.6-7.8-8v-59c0-4.4,3.5-8,7.8-8h0
	C618.2,433,621.7,436.6,621.7,441z"/>
<path class="st1" d="M646.1,455.5v43.9c0,4.4-3.5,8-7.8,8h0c-4.3,0-7.8-3.6-7.8-8v-43.9c0-4.4,3.5-8,7.8-8h0
	C642.6,447.4,646.1,451,646.1,455.5z"/>
<path class="st7" d="M670.3,428.8V500c0,4.4-3.5,8-7.8,8h0c-4.3,0-7.8-3.6-7.8-8v-71.2c0-4.4,3.5-8,7.8-8h0
	C666.7,420.7,670.3,424.3,670.3,428.8z"/>
<path class="st1" d="M694.5,463.8v35.1c0,4.4-3.5,8-7.8,8h0c-4.3,0-7.8-3.6-7.8-8v-35.1c0-4.4,3.5-8,7.8-8h0
	C691,455.7,694.5,459.3,694.5,463.8z"/>
<path class="st7" d="M719.4,444.9V500c0,4.4-3.5,8-7.8,8h0c-4.3,0-7.8-3.6-7.8-8v-55.1c0-4.4,3.5-8,7.8-8h0
	C715.9,436.8,719.4,440.4,719.4,444.9z"/>
<path class="st1" d="M743.3,475.5v23.9c0,4.4-3.5,8-7.8,8h0c-4.3,0-7.8-3.6-7.8-8v-23.9c0-4.4,3.5-8,7.8-8h0
	C739.8,467.4,743.3,471,743.3,475.5z"/>
<path class="st1" d="M792.7,458.7v40.2c0,4.4-3.5,8-7.8,8h0c-4.3,0-7.8-3.6-7.8-8v-40.2c0-4.4,3.5-8,7.8-8h0
	C789.2,450.6,792.7,454.2,792.7,458.7z"/>
<path class="st7" d="M768,422.3v76.6c0,4.4-3.5,8-7.8,8h0c-4.3,0-7.8-3.6-7.8-8v-76.6c0-4.4,3.5-8,7.8-8h0
	C764.5,414.3,768,417.9,768,422.3z"/>
<path class="st7" d="M816.8,430.6v69c0,4.4-3.5,8-7.8,8h0c-4.3,0-7.8-3.6-7.8-8v-69c0-4.4,3.5-8,7.8-8h0
	C813.3,422.5,816.8,426.1,816.8,430.6z"/>
<linearGradient id="SVGID_6_" gradientUnits="userSpaceOnUse" x1="363.1238" y1="398.463" x2="450.9605" y2="398.463" gradientTransform="matrix(1 0 0 -1 0 578)">
	<stop  offset="1.000000e-02" style="stop-color:#005B97"/>
	<stop  offset="0.28" style="stop-color:#03619D"/>
	<stop  offset="0.64" style="stop-color:#0A71AD"/>
	<stop  offset="1" style="stop-color:#1589C4"/>
</linearGradient>
<path class="st10" d="M371,171.5h72.1c4.3,0,7.8,3.6,7.8,8v0c0,4.4-3.5,8-7.8,8H371c-4.3,0-7.8-3.6-7.8-8v0
	C363.1,175.1,366.6,171.5,371,171.5z"/>
<path class="st5" d="M193.5,171.2h31.2c4.3,0,7.8,3.6,7.8,8v0c0,4.4-3.5,8-7.8,8h-31.2c-4.3,0-7.8-3.6-7.8-8v0
	C185.6,174.8,189.1,171.2,193.5,171.2z"/>
<path class="st4" d="M191.1,358.3h31.2c4.3,0,7.8,3.6,7.8,8v0c0,4.4-3.5,8-7.8,8h-31.2c-4.3,0-7.8-3.6-7.8-8v0
	C183.3,361.9,186.8,358.3,191.1,358.3z"/>
<linearGradient id="SVGID_7_" gradientUnits="userSpaceOnUse" x1="1158.0345" y1="148.2693" x2="1371.0388" y2="148.2693" gradientTransform="matrix(1 0 0 -1 -546.04 408.97)">
	<stop  offset="0" style="stop-color:#800080"/>
	<stop  offset="0.22" style="stop-color:#7E0284"/>
	<stop  offset="0.42" style="stop-color:#79098F"/>
	<stop  offset="0.62" style="stop-color:#7114A1"/>
	<stop  offset="0.81" style="stop-color:#6523BC"/>
	<stop  offset="0.99" style="stop-color:#5536DD"/>
	<stop  offset="1" style="stop-color:#5537DE"/>
</linearGradient>
<path class="st11" d="M612,313.5c0.8-11.2,3-22.1,6.6-32.7c4.8-13.7,9.6-20.9,16.3-28.9c2.2-2.7,11.7-7.5,20.9-8.5
	c28.2-3,35.6,33.6,54.7,34c8.9,0.2,19.2-5.4,33.1-26.2c21.3-31.9,26.2-43.5,39.2-43.9c19.5-0.7,29.9,26.8,32.9,41.5
	c5.7,28.1,6,50.5,9.3,65.4L612,313.5z"/>
<linearGradient id="SVGID_8_" gradientUnits="userSpaceOnUse" x1="725.6923" y1="-48.4384" x2="838.0258" y2="-48.4384" gradientTransform="matrix(1 0 0 -1 -546.04 408.97)">
	<stop  offset="1.000000e-02" style="stop-color:#005B97"/>
	<stop  offset="0.28" style="stop-color:#03619D"/>
	<stop  offset="0.64" style="stop-color:#0A71AD"/>
	<stop  offset="1" style="stop-color:#1589C4"/>
</linearGradient>
<path class="st12" d="M292,510.2c-0.4-11-1.5-21.9-3.5-32.7c-2.5-13.7-3.7-21.7-8.6-28.9c-1.6-2.4-6.2-7.5-11-8.5
	c-14.9-3-18.8,33.6-28.8,34c-4.7,0.2-10.1-5.4-17.5-26.2c-11.2-31.8-13.8-43.4-20.7-43.9c-10.3-0.7-15.8,26.8-17.4,41.5
	c-3,28.1-3.2,50.5-4.9,65.4L292,510.2z"/>
<linearGradient id="SVGID_9_" gradientUnits="userSpaceOnUse" x1="882.3021" y1="136.7162" x2="1090.8439" y2="136.7162" gradientTransform="matrix(1 0 0 -1 -546.04 408.97)">
	<stop  offset="0" style="stop-color:#800080"/>
	<stop  offset="0.25" style="stop-color:#770B93"/>
	<stop  offset="0.74" style="stop-color:#6127C3"/>
	<stop  offset="1" style="stop-color:#5537DE"/>
</linearGradient>
<path class="st13" d="M336.7,303.4l20.7-38l30.9,16.2c4.8-14.1,9.6-28.2,14.3-42.4c12,14.6,24,29.2,36,43.8l24.3-48.1
	c8.7,9.5,17.4,19.1,26.2,28.6l30.5-13.7l24.8,53.6c0.9,1.8,0.4,4-1.1,5.4c-2.1,1.4-4.9,0.8-6.2-1.3c0-0.1-0.1-0.1-0.1-0.2
	l-21.7-46.1l-28,13l-22.3-24l-24.3,48.1l-34.4-41.4l-12.6,36.3l-32.3-16.1c-5.9,10.4-11.9,20.8-17.8,31.1c-1.3,1.5-3.4,1.9-5.1,1
	C336.5,308,335.7,305.5,336.7,303.4z"/>
<path class="st14" d="M187.8,243.7"/>
<path class="st14" d="M196.5,244.9"/>
<path class="st14" d="M221.9,218.3"/>
<path class="st14" d="M207.2,243.1"/>
<path class="st14" d="M214.3,244.7"/>
<path class="st14" d="M221.2,228.9"/>
<path class="st14" d="M223.1,236.1"/>
<path class="st7" d="M261.9,255.2c-0.2,14.8-9.4,27.8-23.1,32.5c-12.6,4.2-26.3,0.3-35-9.9C192,264,193.5,243,207,230.9
	c6.3-5.6,14.5-8.5,22.8-8.1c2.3-0.5,3.7-2.7,3.3-5c-0.3-1.4-1.3-2.6-2.6-3.1c-22.5-1.4-41.7,16.2-43.1,39.2
	c-1.3,23,15.8,42.8,38.3,44.1c5.6,0.3,11.2-0.5,16.4-2.5c16.9-6.4,27.8-23.1,27.2-41.5c-0.6-1.5-2-2.5-3.7-2.5
	C263.7,251.5,262.1,253.1,261.9,255.2z"/>
<path class="st1" d="M225.8,239.9c8.6,0,12.1,4,14.6,8.3c2.4,4.1,2,13.4-3.7,18.5c-5.1,4.4-12.4,4.7-17.8,0.6
	c-4.5-3.5-5.5-8.7-5.6-11.3c-0.1-1.6-1-3.1-2.4-3.9c-1.2-0.6-2.6-0.7-3.8-0.3c-1.3,0.5-2.2,1.8-2.2,3.3c0.1,4,1.1,13.7,9.1,19.8
	c8.7,6.6,21.5,5.6,29.5-2.2c9.3-9,9.6-24.1,0.8-33.5c-4.8-5.1-11.5-7.8-18.4-7.3c-0.8,0.1-1.6,0.4-2.2,1c-1,0.8-1.6,2-1.7,3.2
	C222.2,237.8,224.1,239.9,225.8,239.9z"/>
<linearGradient id="SVGID_10_" gradientUnits="userSpaceOnUse" x1="334.4207" y1="203.735" x2="442.9381" y2="203.735" gradientTransform="matrix(1 0 0 -1 0 578)">
	<stop  offset="0" style="stop-color:#800080"/>
	<stop  offset="0.21" style="stop-color:#7E0284"/>
	<stop  offset="0.41" style="stop-color:#790990"/>
	<stop  offset="0.62" style="stop-color:#7015A4"/>
	<stop  offset="0.82" style="stop-color:#6325BF"/>
	<stop  offset="1" style="stop-color:#5537DE"/>
</linearGradient>
<path class="st15" d="M342.1,366.4h93.1c4.3,0,7.7,3.5,7.7,7.9v0c0,4.4-3.5,7.9-7.7,7.9h-93.1c-4.3,0-7.7-3.5-7.7-7.9v0
	C334.4,369.9,337.9,366.4,342.1,366.4z"/>
<ellipse class="st1" cx="465.4" cy="374.3" rx="6.6" ry="6.8"/>
<ellipse class="st7" cx="483.8" cy="374.3" rx="6.6" ry="6.8"/>
<ellipse class="st1" cx="502.1" cy="374.3" rx="6.6" ry="6.8"/>
</svg>
